<svg width="304" height="268" viewBox="0 0 304 268" fill="none" xmlns="http://www.w3.org/2000/svg">
<path d="M145.2 1.06668C142.533 2.13335 125.467 15.4667 107.2 30.6667C88.9332 46 59.5999 70.6667 42.1332 85.3333C-0.933423 121.333 -0.533421 120.933 0.533245 126.267C1.59991 131.733 5.73325 135.333 11.0666 135.333C15.3332 135.333 20.3999 132 30.6666 122.8L36.6666 117.333L37.3332 184C37.8666 232.667 38.3999 251.467 39.5999 253.467C42.9332 259.333 50.3999 264.4 57.7332 266C62.7999 266.933 92.3999 267.333 156.133 267.067C255.733 266.667 251.2 266.933 258.8 258.933C266.133 251.067 266 253.2 266.667 182.8L267.333 117.6L276 124.933C286.267 133.6 289.333 135.333 294 135.333C298.533 135.333 304 129.733 304 125.2C304 121.2 300.4 117.467 280.667 100.8L267.333 89.6L266.667 60.4C265.867 25.8667 266.667 27.3333 250.667 27.3333C235.2 27.3333 234.667 28 234.667 46.8V62.2667L229.733 58.1333C226.933 55.8667 211.467 42.9333 195.333 29.3333C179.2 15.6 164.533 3.60001 162.667 2.66668C157.2 -0.133321 150.4 -0.799988 145.2 1.06668ZM178.4 42.9333C191.333 53.8667 202.267 62.9333 202.667 63.3333C203.067 63.7333 208.667 68.5333 215.333 74C230.267 86.4 233.867 89.4667 240.267 95.2L245.333 99.6V169.333C245.333 237.733 245.333 239.067 242.533 242.533L239.867 246H214.533H189.333V241.6C189.2 239.333 189.067 219.067 188.933 196.933L188.667 156.4L185.467 153.867C182.667 151.6 179.867 151.333 152 151.333C124.133 151.333 121.333 151.6 118.533 153.867L115.333 156.4L115.067 196.933C114.933 219.067 114.8 239.333 114.667 241.6V246H89.4666C66.6666 246 63.9999 245.733 61.1999 243.467L57.9999 240.933L57.7332 170.4L57.3332 100L62.5332 96C68.6666 91.3333 136.933 34 143.867 27.7333C146.533 25.3333 150 23.3333 151.733 23.3333C153.867 23.3333 162.667 29.8667 178.4 42.9333Z" fill="#959595"/>
</svg>
