<svg width="941" height="945" viewBox="0 0 941 945" fill="none" xmlns="http://www.w3.org/2000/svg">
<path d="M452 0.933337C452 1.73334 441.6 53.8667 440.667 57.6C440.133 60.1333 438.8 60.5333 429.733 61.3333C302.133 72.4 194.4 141.867 133.733 252C123.2 270.933 120.8 278.533 121.733 288.667C122.533 297.6 127.733 308.4 133.733 313.467C142.133 320.533 148 322.667 159.333 322.667C178 322.667 186.667 316.133 198.667 292.8C235.6 221.067 304.267 166.667 384.4 146C399.6 142.133 422.133 138.4 423.333 139.6C423.6 139.867 421.467 152 418.533 166.533C415.467 180.933 413.333 193.067 413.733 193.467C414.533 194.267 598.667 132.267 598.667 131.067C598.667 130.667 570.667 105.467 536.4 75.0667C502 44.8 469.067 15.6 463.067 10.2667C456.933 4.8 452 0.66667 452 0.933337Z" fill="#959595"/>
<path d="M649.733 122C638.666 124.267 628.4 132.4 623.333 142.667C619.733 150.133 619.066 164 622 172.533C625.333 182.667 632 188.933 649.333 198.133C696.8 223.467 733.6 257.6 762 302.667C778.4 328.8 792.8 364.533 799.2 395.067C804 418.267 804.533 423.333 802.266 423.333C801.333 423.333 788.933 421.067 774.933 418.133C760.8 415.333 749.333 413.467 749.333 414.133C749.333 414.667 763.2 456.533 780.133 507.2C806.666 586.533 811.2 599.2 812.933 597.733C815.466 595.733 940.533 454.133 940.933 452.933C941.2 452.4 928 449.333 911.6 446L882 440L881.066 426.667C876.666 365.733 853.2 299.2 817.6 248C798.666 220.533 770.8 190.267 746.666 170.933C718.8 148.533 674.4 122.667 661.333 121.467C658 121.067 652.8 121.333 649.733 122Z" fill="#959595"/>
<path d="M64.9331 419.6C29.1997 460 0.399738 493.6 0.933071 494C1.4664 494.533 14.5331 497.467 29.8664 500.4C45.1997 503.467 57.9997 506.267 58.3997 506.667C58.7997 506.933 59.5997 513.467 60.1331 520.933C70.5331 645.733 145.6 758.133 257.066 816.133C272.133 824 272.133 824 283.733 824C297.466 824 303.066 821.6 311.466 812.4C319.2 804 321.866 796.4 321.066 784.133C320 766.933 313.2 758.933 290.666 747.333C234.533 718.533 188 669.067 161.333 610C150.666 586.4 141.066 552.8 137.866 528.8C137.066 522.267 137.2 521.733 139.466 522.4C147.2 524.667 190.8 532.933 191.466 532.267C191.866 532 178.133 489.867 161.066 438.8L129.866 346.133L64.9331 419.6Z" fill="#959595"/>
<path d="M766.666 626C758.133 630 751.2 637.2 745.866 647.6C727.866 683.067 701.066 717.067 671.866 741.467C639.066 768.8 596.133 790.533 554.533 800.667C538.533 804.533 518.8 808 517.866 807.067C517.6 806.667 519.733 794.533 522.666 780C525.6 765.467 527.733 753.333 527.466 752.933C526.8 752.4 459.466 774.667 381.6 801.067L341.2 814.8L414.666 879.867C455.2 915.6 488.4 944.667 488.8 944.4C489.066 944.133 491.866 931.067 495.2 915.467C498.4 899.733 501.733 886.533 502.666 886C503.466 885.467 509.866 884.667 516.666 884.267C557.466 881.6 604.266 868.533 646 848C686.666 828.133 712.4 809.733 744.8 777.333C774.4 747.733 797.733 715.6 813.866 682.133C818.8 671.733 819.333 669.733 819.333 660.667C819.2 648.933 815.333 639.867 807.466 632.933C799.6 626 794.933 624.267 783.333 623.733C774.666 623.333 771.6 623.733 766.666 626Z" fill="#959595"/>
</svg>
