<svg width="622" height="622" viewBox="0 0 622 622" fill="none" xmlns="http://www.w3.org/2000/svg">
<path d="M282.333 1.59999C269.667 2.79999 242.867 7.86666 227.8 12C121.667 41.0667 39.3999 123.867 11.1332 230.267C4.19991 256 1.53324 275.067 0.73324 302.8C-0.46676 342.133 3.93324 373.733 15.2666 408.533C33.2666 464 68.0666 514.933 112.733 551.2C149.667 581.067 200.067 605.333 246.067 615.2C275.533 621.6 316.2 623.733 345.4 620.533C446.733 609.6 535.4 548.8 584.867 456.667C602.867 423.067 616.067 380 620.2 341.733C628.733 264.267 602.867 179.2 551.4 115.333C500.867 52.5333 424.733 10.6667 345.4 2.13333C333.4 0.799992 294.733 0.533325 282.333 1.59999ZM362.333 51.8667C431.4 66.5333 490.6 106.4 529.4 164.4C583.133 244.267 589.667 343.6 546.867 428.933C501.133 520.267 412.867 575.333 312.333 575.333C222.733 575.333 139.8 531.467 90.3332 457.867C81.3999 444.533 69.7999 422 63.6666 405.867C57.9332 391.067 51.5332 365.333 48.9999 347.333C46.4666 328.933 46.4666 294 49.1332 275.2C64.1999 167.067 141.4 81.7333 248.733 54.5333C272.2 48.5333 283.933 47.4667 316.333 47.8667C342.333 48.2667 348.467 48.8 362.333 51.8667Z" fill="#959595"/>
<path d="M297.533 143.067C268.067 158.4 279.267 203.333 312.467 203.333C331.267 203.333 344.867 189.867 344.867 171.333C344.867 146.667 319.533 131.6 297.533 143.067Z" fill="#959595"/>
<path d="M305.267 233.2C302.467 234.267 298.867 236.133 297.4 237.6C290.867 243.333 291 240.4 291 371.067V493.6L294.067 498C298.867 505.067 303.4 507.733 311.933 508.4C321.667 508.933 330.333 504.933 334.333 498C337 493.467 337 491.067 337.4 372.933C337.667 293.067 337.267 250.8 336.333 247.333C334.733 241.2 327.667 234.667 320.733 232.8C314.2 230.933 311.533 231.067 305.267 233.2Z" fill="#959595"/>
</svg>
